<svg width="1440" height="784" viewBox="0 0 1440 784" fill="none" xmlns="http://www.w3.org/2000/svg">
<g clip-path="url(#clip0_2725_10058)">
<rect width="1440" height="784" fill="#FAF8F8"/>
<path opacity="0.06" fill-rule="evenodd" clip-rule="evenodd" d="M1325.39 104.827C1369.85 110.539 1411.54 122.27 1453.37 136.361C1497.67 151.281 1544.13 163.112 1579.49 190.406C1617.27 219.575 1651.14 255.566 1662.74 297.979C1674.35 340.438 1651.86 383.079 1643.96 426.159C1635.55 471.996 1644.61 522.723 1614.45 561.269C1584.05 600.11 1530.01 620.33 1478.98 636.969C1430.05 652.924 1377.43 660.412 1325.39 655.517C1275.65 650.838 1230.6 630.894 1187.23 609.527C1145.84 589.135 1103.5 567.477 1077.31 533.291C1051.79 499.996 1056.34 457.123 1041.53 419.374C1025.05 377.339 977.432 341.234 984.761 297.338C992.003 253.965 1045.98 229.15 1078.9 195.602C1111.06 162.816 1131.53 117.831 1177.47 100.913C1223.36 84.0125 1275.98 98.4796 1325.39 104.827Z" fill="url(#paint0_linear_2725_10058)"/>
<path opacity="0.06" fill-rule="evenodd" clip-rule="evenodd" d="M-29.6122 255.827C14.8463 261.539 56.536 273.27 98.3719 287.361C142.675 302.281 189.13 314.112 224.488 341.406C262.275 370.575 296.136 406.566 307.735 448.979C319.347 491.438 296.861 534.079 288.959 577.159C280.553 622.996 289.613 673.723 259.446 712.269C229.049 751.11 175.009 771.33 123.977 787.969C75.0455 803.924 22.4342 811.412 -29.6122 806.517C-79.3497 801.838 -124.397 781.894 -167.766 760.527C-209.156 740.135 -251.499 718.477 -277.694 684.291C-303.206 650.996 -298.662 608.123 -313.467 570.374C-329.954 528.339 -377.568 492.234 -370.239 448.338C-362.997 404.965 -309.017 380.15 -276.103 346.602C-243.939 313.816 -223.473 268.831 -177.534 251.913C-131.642 235.012 -79.0161 249.48 -29.6122 255.827Z" fill="#357CBD"/>
</g>
<defs>
<linearGradient id="paint0_linear_2725_10058" x1="984" y1="453.757" x2="1665.95" y2="440.829" gradientUnits="userSpaceOnUse">
<stop stop-color="#357CBD"/>
<stop offset="0.903646" stop-color="#3AAFAA"/>
</linearGradient>
<clipPath id="clip0_2725_10058">
<rect width="1440" height="784" fill="white"/>
</clipPath>
</defs>
</svg>
