<svg xmlns:xlink="http://www.w3.org/1999/xlink" xmlns="http://www.w3.org/2000/svg" width="211" height="64" viewBox="0 0 211 64" fill="none">
<path d="M38.4681 37.4294C36.9607 39.4757 34.5351 40.807 31.8033 40.807C30.369 40.807 29.0198 40.4384 27.8426 39.7936L24.4338 44.3482L24.3337 44.4819L24.2336 44.3482L20.8249 39.7936C19.6477 40.4384 18.2984 40.807 16.864 40.807C14.1323 40.807 11.7068 39.4757 10.1994 37.4294V40.7188L24.3338 46.8549L38.4681 40.7188V37.4294ZM34.5732 19.2098L24.3803 23.3049L24.3337 23.3236L24.2871 23.3049L14.0942 19.2098V22.1959L20.2585 24.9846L20.3732 25.0365L20.3711 25.041C22.1034 25.8551 23.5089 27.2515 24.3337 28.9778C25.1588 27.2509 26.5651 25.8541 28.2981 25.0401L28.2962 25.0356L28.4089 24.9846L34.5732 22.196V19.2098ZM3.84636 15.0925V19.2302L5.10218 22.9309L5.12545 22.9995L5.07755 23.0538L3.0856 25.3115L2.99187 25.4177L2.89814 25.3115L0.906266 23.0538L0.858362 22.9995L0.88163 22.9309L2.23646 18.9383V13.442V13.3575L2.31486 13.326L24.2871 4.49827L24.3337 4.47955L24.3803 4.49827L47.4967 13.7856L47.7854 13.9016L47.4967 14.0176L36.1831 18.563V21.4677L39.9015 19.7855L40.078 19.7057V19.8994V47.3371C40.078 49.9443 38.5431 52.3232 36.1675 53.398L24.3852 58.7281L24.3337 58.7515L24.2822 58.7281L12.4999 53.398C10.1243 52.3232 8.58943 49.9444 8.58943 47.3371V19.8994V19.7057L8.76595 19.7855L12.4843 21.4676V18.5629L3.84636 15.0925ZM33.5216 24.4386C35.5387 24.8664 37.2858 26.0305 38.4681 27.6355V22.201L33.5216 24.4386ZM25.1387 32.5324C25.1387 36.2072 28.1285 39.1971 31.8033 39.1971C35.4783 39.1971 38.4681 36.2072 38.4681 32.5324C38.4681 28.8576 35.4783 25.8677 31.8033 25.8677C28.1285 25.8677 25.1387 28.8576 25.1387 32.5324ZM38.4681 42.4739L14.8874 52.711L18.6438 54.4103L38.4681 45.8041V42.4739ZM38.462 47.5618L20.6237 55.306L24.3337 56.9843L35.504 51.9311C37.236 51.1476 38.3776 49.449 38.462 47.5618ZM12.9207 51.8097L16.4554 50.2752L10.2055 47.5619C10.2861 49.3584 11.3265 50.9819 12.9207 51.8097ZM18.4769 49.3976L22.3123 47.7326L10.1994 42.474V45.8041L18.4769 49.3976ZM23.5287 32.5324C23.5287 28.8576 20.5389 25.8677 16.864 25.8677C13.1892 25.8677 10.1994 28.8576 10.1994 32.5324C10.1994 36.2072 13.1892 39.1971 16.864 39.1971C20.5389 39.1971 23.5287 36.2072 23.5287 32.5324ZM10.1994 27.6355C11.3817 26.0305 13.1289 24.8664 15.1458 24.4386L10.1994 22.201V27.6355ZM24.3337 36.087C23.8159 37.1709 23.0696 38.1248 22.1568 38.8864L24.3337 41.795L26.5106 38.8864C25.5978 38.1248 24.8515 37.1709 24.3337 36.087ZM43.4669 13.9016L24.3337 6.2146L5.20062 13.9016L24.3337 21.5886L43.4669 13.9016Z" fill="url(#paint0_linear_722_5313)" stroke="url(#paint1_linear_722_5313)" stroke-width="0.25"/>
<path d="M16.8644 35.0471C18.253 35.0471 19.3788 33.9214 19.3788 32.5327C19.3788 31.1442 18.253 30.0184 16.8644 30.0184C16.5475 30.0184 16.2456 30.0796 15.9664 30.1865C16.3306 30.3205 16.5919 30.6673 16.5919 31.0781C16.5919 31.6044 16.1652 32.031 15.6389 32.031C15.1722 32.031 14.7855 31.695 14.7036 31.252C14.4805 31.6275 14.3501 32.0644 14.3501 32.5327C14.3501 33.9214 15.4758 35.0471 16.8644 35.0471Z" fill="url(#paint2_linear_722_5313)"/>
<path d="M31.804 30.0184C31.4872 30.0184 31.1851 30.0795 30.906 30.1865C31.2703 30.3204 31.5315 30.6674 31.5315 31.078C31.5315 31.6043 31.1049 32.031 30.5786 32.031C30.1118 32.031 29.7251 31.695 29.6431 31.252C29.42 31.6275 29.2897 32.0644 29.2897 32.5327C29.2897 33.9213 30.4153 35.0471 31.804 35.0471C33.1927 35.0471 34.3184 33.9213 34.3184 32.5327C34.3184 31.1441 33.1927 30.0184 31.804 30.0184Z" fill="url(#paint3_linear_722_5313)"/>
<path d="M66.9994 25.2839L67.2076 24.7964H66.6775H64.7891H64.5569L64.4667 25.0104L60.453 34.5211L56.6158 25.0154L56.5274 24.7964H56.2913H54.4501H53.9349L54.1247 25.2754L59.0298 37.655L57.0532 42.4816L56.8556 42.9643H57.3771H59.2183H59.4494L59.5402 42.7517L66.9994 25.2839ZM79.9536 38.4319L80.2936 38.4222V38.0821V25.1464V24.7964H79.9436H78.1969H77.8469V25.1464V32.2752C77.8469 33.4605 77.5003 34.4842 76.8859 35.2054C76.2767 35.9206 75.3844 36.363 74.2312 36.363C73.0528 36.363 72.172 35.9193 71.5811 35.2334C70.9846 34.5411 70.6627 33.5766 70.6627 32.5113V25.1464V24.7964H70.3127H68.566H68.216V25.1464V32.5113C68.216 34.0139 68.4705 34.9907 68.8011 35.6585C69.0913 36.2446 69.435 36.5761 69.6507 36.7841C69.6815 36.8138 69.7097 36.841 69.7348 36.866C70.7141 37.8453 71.931 38.7625 74.0423 38.7625C75.5978 38.7625 76.9615 38.2775 77.9413 37.1671V38.1293V38.4894L78.3013 38.4791L79.9536 38.4319ZM94.7599 25.2819L94.9637 24.7964H94.4372H92.5488H92.3149L92.2254 25.0125L88.1093 34.9525L83.9489 25.0113L83.859 24.7964H83.626H81.7376H81.2111L81.4149 25.2819L86.8441 38.2175L86.9341 38.4321H87.1668H89.008H89.2407L89.3307 38.2175L94.7599 25.2819ZM109.308 38.4321H109.658V38.0821V25.1464V24.7964H109.308H107.656H107.306V25.1464V26.5212C107.152 26.3406 106.968 26.1507 106.753 25.9627C105.903 25.2208 104.56 24.5132 102.557 24.5132C98.4472 24.5132 95.3147 27.7842 95.3147 31.567C95.3147 33.9404 96.4485 35.5718 96.6121 35.7899L96.6211 35.8019L96.6311 35.8131C98.684 38.1104 100.953 38.7625 102.652 38.7625C104.354 38.7625 106.152 38.0988 107.306 36.7397V38.0821V38.4321H107.656H109.308ZM131.733 38.4321H132.083V38.0821V30.6228C132.083 29.1298 131.845 27.6381 130.653 26.4987C129.545 25.4383 128.186 24.5132 126.493 24.5132C125.509 24.5132 124.518 24.7898 123.69 25.2542C123.052 25.6118 122.495 26.0898 122.116 26.6559C121.101 25.356 119.461 24.5132 117.665 24.5132C116.2 24.5132 115.264 25.0475 114.689 25.6028C114.636 25.6545 114.586 25.7061 114.538 25.7573C114.54 25.7114 114.542 25.6663 114.544 25.6226C114.55 25.494 114.556 25.3799 114.56 25.2979L114.566 25.2016L114.567 25.1757L114.568 25.1691L114.568 25.1675L114.568 25.1671L114.568 25.167L114.589 24.7964H114.218H112.566H112.216V25.1464V38.0821V38.4321H112.566H114.313H114.663V38.0821V30.1035C114.663 29.1207 114.989 28.3275 115.524 27.7816C116.06 27.236 116.828 26.9128 117.759 26.9128C119.525 26.9128 120.903 28.3368 120.903 30.3396V38.0821V38.4321H121.253H122.999H123.349V38.0821V30.0563C123.349 29.0584 123.705 28.2784 124.257 27.7474C124.811 27.2139 125.583 26.9128 126.446 26.9128C127.494 26.9128 128.28 27.3467 128.811 28.0043C129.349 28.6698 129.637 29.5798 129.637 30.5284V38.0821V38.4321H129.987H131.733ZM146.255 24.7964H145.944H144.055H143.823L143.733 25.0104L139.719 34.5211L135.882 25.0154L135.794 24.7964H135.557H133.716H133.201L133.391 25.2754L138.296 37.655L136.319 42.4816L136.122 42.9643H136.643H138.484H138.716L138.806 42.7517L146.255 25.3096V26.7516V27.1016H146.605H148.946V38.0821V38.4321H149.296H151.042H151.392V38.0821V27.1016H154.064H154.414V26.7516V25.1464V24.7964H154.064H151.392V20.6143V20.2643H151.042H149.296H148.946V20.6143V24.7964H146.605H146.474H146.255ZM161.445 26.9596L161.779 26.9437V26.61V24.8632V24.5132H161.429C159.936 24.5132 158.808 25.0436 158.049 25.8853V25.1464V24.7964H157.699H156.047H155.697V25.1464V38.0821V38.4321H156.047H157.793H158.143V38.0821V30.2924C158.143 28.3783 159.625 27.0463 161.445 26.9596ZM164.378 38.4321H164.728V38.0821V35.1078V34.7578H164.378H162.634H162.284V35.1078V38.0821V38.4321H162.634H164.378ZM107.306 31.6615C107.306 34.1226 105.233 36.363 102.652 36.363C100.038 36.363 97.7614 34.2802 97.7614 31.7087C97.7614 29.0714 99.916 26.9128 102.605 26.9128C105.285 26.9128 107.306 29.0157 107.306 31.6615Z" fill="url(#paint4_linear_722_5313)" stroke="url(#paint5_linear_722_5313)" stroke-width="0.7"/>
<defs>
<linearGradient id="paint0_linear_722_5313" x1="1" y1="24.0737" x2="47.4547" y2="24.7002" gradientUnits="userSpaceOnUse">
<stop stop-color="#357CBD"/>
<stop offset="0.903646" stop-color="#3AAFAA"/>
</linearGradient>
<linearGradient id="paint1_linear_722_5313" x1="1" y1="24.0737" x2="47.4547" y2="24.7002" gradientUnits="userSpaceOnUse">
<stop stop-color="#357CBD"/>
<stop offset="0.903646" stop-color="#3AAFAA"/>
</linearGradient>
<linearGradient id="paint2_linear_722_5313" x1="14.3501" y1="31.8306" x2="19.379" y2="31.9094" gradientUnits="userSpaceOnUse">
<stop stop-color="#357CBD"/>
<stop offset="0.903646" stop-color="#3AAFAA"/>
</linearGradient>
<linearGradient id="paint3_linear_722_5313" x1="29.2897" y1="31.8306" x2="34.3185" y2="31.9094" gradientUnits="userSpaceOnUse">
<stop stop-color="#357CBD"/>
<stop offset="0.903646" stop-color="#3AAFAA"/>
</linearGradient>
<linearGradient id="paint4_linear_722_5313" x1="54.4501" y1="34.6863" x2="163.738" y2="26.1255" gradientUnits="userSpaceOnUse">
<stop stop-color="#357CBD"/>
<stop offset="0.903646" stop-color="#3AAFAA"/>
</linearGradient>
<linearGradient id="paint5_linear_722_5313" x1="54.4501" y1="34.6863" x2="163.738" y2="26.1255" gradientUnits="userSpaceOnUse">
<stop stop-color="#357CBD"/>
<stop offset="0.903646" stop-color="#3AAFAA"/>
</linearGradient>
</defs>
</svg>