<svg xmlns:xlink="http://www.w3.org/1999/xlink" xmlns="http://www.w3.org/2000/svg" width="49" height="55" viewBox="0 0 49 55" fill="none">
<path d="M38.4681 33.4294C36.9607 35.4757 34.5351 36.807 31.8033 36.807C30.369 36.807 29.0198 36.4384 27.8426 35.7936L24.4338 40.3482L24.3337 40.4819L24.2336 40.3482L20.8249 35.7936C19.6477 36.4384 18.2984 36.807 16.864 36.807C14.1323 36.807 11.7068 35.4757 10.1994 33.4294V36.7188L24.3338 42.8549L38.4681 36.7188V33.4294ZM34.5732 15.2098L24.3803 19.3049L24.3337 19.3236L24.2871 19.3049L14.0942 15.2098V18.1959L20.2585 20.9846L20.3732 21.0365L20.3711 21.041C22.1034 21.8551 23.5089 23.2515 24.3337 24.9778C25.1588 23.2509 26.5651 21.8541 28.2981 21.0401L28.2962 21.0356L28.4089 20.9846L34.5732 18.196V15.2098ZM3.84636 11.0925V15.2302L5.10218 18.9309L5.12545 18.9995L5.07755 19.0538L3.0856 21.3115L2.99187 21.4177L2.89814 21.3115L0.906266 19.0538L0.858362 18.9995L0.88163 18.9309L2.23646 14.9383V9.44197V9.35748L2.31486 9.32598L24.2871 0.498268L24.3337 0.479546L24.3803 0.498268L47.4967 9.78562L47.7854 9.90161L47.4967 10.0176L36.1831 14.563V17.4677L39.9015 15.7855L40.078 15.7057V15.8994V43.3371C40.078 45.9443 38.5431 48.3232 36.1675 49.398L24.3852 54.7281L24.3337 54.7515L24.2822 54.7281L12.4999 49.398C10.1243 48.3232 8.58943 45.9444 8.58943 43.3371V15.8994V15.7057L8.76595 15.7855L12.4843 17.4676V14.5629L3.84636 11.0925ZM33.5216 20.4386C35.5387 20.8664 37.2858 22.0305 38.4681 23.6355V18.201L33.5216 20.4386ZM25.1387 28.5324C25.1387 32.2072 28.1285 35.1971 31.8033 35.1971C35.4783 35.1971 38.4681 32.2072 38.4681 28.5324C38.4681 24.8576 35.4783 21.8677 31.8033 21.8677C28.1285 21.8677 25.1387 24.8576 25.1387 28.5324ZM38.4681 38.4739L14.8874 48.711L18.6438 50.4103L38.4681 41.8041V38.4739ZM38.462 43.5618L20.6237 51.306L24.3337 52.9843L35.504 47.9311C37.236 47.1476 38.3776 45.449 38.462 43.5618ZM12.9207 47.8097L16.4554 46.2752L10.2055 43.5619C10.2861 45.3584 11.3265 46.9819 12.9207 47.8097ZM18.4769 45.3976L22.3123 43.7326L10.1994 38.474V41.8041L18.4769 45.3976ZM23.5287 28.5324C23.5287 24.8576 20.5389 21.8677 16.864 21.8677C13.1892 21.8677 10.1994 24.8576 10.1994 28.5324C10.1994 32.2072 13.1892 35.1971 16.864 35.1971C20.5389 35.1971 23.5287 32.2072 23.5287 28.5324ZM10.1994 23.6355C11.3817 22.0305 13.1289 20.8664 15.1458 20.4386L10.1994 18.201V23.6355ZM24.3337 32.087C23.8159 33.1709 23.0696 34.1248 22.1568 34.8864L24.3337 37.795L26.5106 34.8864C25.5978 34.1248 24.8515 33.1709 24.3337 32.087ZM43.4669 9.90161L24.3337 2.2146L5.20062 9.90161L24.3337 17.5886L43.4669 9.90161Z" fill="url(#paint0_linear_875_8225)" stroke="url(#paint1_linear_875_8225)" stroke-width="0.25"/>
<path d="M16.8644 31.0471C18.253 31.0471 19.3788 29.9214 19.3788 28.5327C19.3788 27.1442 18.253 26.0184 16.8644 26.0184C16.5475 26.0184 16.2456 26.0796 15.9664 26.1865C16.3306 26.3205 16.5919 26.6673 16.5919 27.0781C16.5919 27.6044 16.1652 28.031 15.6389 28.031C15.1722 28.031 14.7855 27.695 14.7036 27.252C14.4805 27.6275 14.3501 28.0644 14.3501 28.5327C14.3501 29.9214 15.4758 31.0471 16.8644 31.0471Z" fill="url(#paint2_linear_875_8225)"/>
<path d="M31.8039 26.0184C31.4871 26.0184 31.185 26.0795 30.9058 26.1865C31.2701 26.3204 31.5314 26.6674 31.5314 27.078C31.5314 27.6043 31.1048 28.031 30.5784 28.031C30.1117 28.031 29.7249 27.695 29.643 27.252C29.4199 27.6275 29.2896 28.0644 29.2896 28.5327C29.2896 29.9213 30.4152 31.0471 31.8039 31.0471C33.1926 31.0471 34.3182 29.9213 34.3182 28.5327C34.3182 27.1441 33.1926 26.0184 31.8039 26.0184Z" fill="url(#paint3_linear_875_8225)"/>
<defs>
<linearGradient id="paint0_linear_875_8225" x1="1" y1="20.0737" x2="47.4547" y2="20.7002" gradientUnits="userSpaceOnUse">
<stop stop-color="#357CBD"/>
<stop offset="0.903646" stop-color="#3AAFAA"/>
</linearGradient>
<linearGradient id="paint1_linear_875_8225" x1="1" y1="20.0737" x2="47.4547" y2="20.7002" gradientUnits="userSpaceOnUse">
<stop stop-color="#357CBD"/>
<stop offset="0.903646" stop-color="#3AAFAA"/>
</linearGradient>
<linearGradient id="paint2_linear_875_8225" x1="14.3501" y1="27.8306" x2="19.379" y2="27.9094" gradientUnits="userSpaceOnUse">
<stop stop-color="#357CBD"/>
<stop offset="0.903646" stop-color="#3AAFAA"/>
</linearGradient>
<linearGradient id="paint3_linear_875_8225" x1="29.2896" y1="27.8306" x2="34.3184" y2="27.9094" gradientUnits="userSpaceOnUse">
<stop stop-color="#357CBD"/>
<stop offset="0.903646" stop-color="#3AAFAA"/>
</linearGradient>
</defs>
</svg>